# xmcd
#
# Track frame offsets:
#	150
#	34353
#	106025
#	112809
#	183619
#	251655
#	267900
#	300195
#
# Disc length: 4330 seconds
#
# Revision: 1
# Processed by: cddbd v1.5.2PL0 Copyright (c) Steve Scherf et al.
# Submitted via: audiograbber 1.83.01
#
DISCID=5f10e808
DTITLE=Grateful Dead - 76-07-17 Orpheum Theatre, San Francisco CA
DYEAR=1900
DGENRE=
TTITLE0=Samson and Delilah
TTITLE1=Comes A Time
TTITLE2=Drums
TTITLE3=The Other One
TTITLE4=Eyes Of The World
TTITLE5=The Other One
TTITLE6=Going Down The Road Feeling Bad
TTITLE7=One More Saturday Night
EXTD=
EXTT0=
EXTT1=
EXTT2=
EXTT3=
EXTT4=
EXTT5=
EXTT6=
EXTT7=
PLAYORDER=
